<svg width="28" height="28" viewBox="0 0 28 28" fill="none" xmlns="http://www.w3.org/2000/svg">
<path d="M12.8866 13.277C13.4598 12.6106 13.8299 11.7937 13.9527 10.9233C14.0756 10.0529 13.9461 9.16548 13.5797 8.36643C13.2133 7.56739 12.6253 6.89025 11.8855 6.4154C11.1458 5.94055 10.2853 5.68792 9.40625 5.6875H3.5C3.1519 5.6875 2.81806 5.82578 2.57192 6.07192C2.32578 6.31806 2.1875 6.6519 2.1875 7V21C2.1875 21.3481 2.32578 21.6819 2.57192 21.9281C2.81806 22.1742 3.1519 22.3125 3.5 22.3125H9.84375C10.8965 22.3118 11.9225 21.9809 12.7772 21.3663C13.632 20.7518 14.2725 19.8847 14.6084 18.887C14.9444 17.8893 14.959 16.8114 14.6501 15.805C14.3412 14.7986 13.7244 13.9144 12.8866 13.277ZM4.8125 8.3125H9.40625C9.92839 8.3125 10.4292 8.51992 10.7984 8.88913C11.1676 9.25835 11.375 9.7591 11.375 10.2812C11.375 10.8034 11.1676 11.3042 10.7984 11.6734C10.4292 12.0426 9.92839 12.25 9.40625 12.25H4.8125V8.3125ZM9.84375 19.6875H4.8125V14.875H9.84375C10.4819 14.875 11.094 15.1285 11.5452 15.5798C11.9965 16.031 12.25 16.6431 12.25 17.2812C12.25 17.9194 11.9965 18.5315 11.5452 18.9827C11.094 19.434 10.4819 19.6875 9.84375 19.6875ZM17.0625 8.3125C17.0625 7.9644 17.2008 7.63056 17.4469 7.38442C17.6931 7.13828 18.0269 7 18.375 7H25.375C25.7231 7 26.0569 7.13828 26.3031 7.38442C26.5492 7.63056 26.6875 7.9644 26.6875 8.3125C26.6875 8.6606 26.5492 8.99444 26.3031 9.24058C26.0569 9.48672 25.7231 9.625 25.375 9.625H18.375C18.0269 9.625 17.6931 9.48672 17.4469 9.24058C17.2008 8.99444 17.0625 8.6606 17.0625 8.3125ZM21.875 10.9375C20.3666 10.9375 18.9199 11.5367 17.8533 12.6033C16.7867 13.6699 16.1875 15.1166 16.1875 16.625C16.1875 18.1334 16.7867 19.5801 17.8533 20.6467C18.9199 21.7133 20.3666 22.3125 21.875 22.3125C22.7353 22.3148 23.5846 22.1199 24.3578 21.7427C24.5166 21.6696 24.6591 21.5657 24.7771 21.4369C24.8952 21.308 24.9863 21.1569 25.0452 20.9924C25.104 20.8279 25.1294 20.6533 25.1199 20.4788C25.1104 20.3044 25.0662 20.1336 24.9898 19.9764C24.9134 19.8193 24.8064 19.679 24.6751 19.5637C24.5438 19.4485 24.3908 19.3606 24.225 19.3053C24.0593 19.2499 23.8842 19.2283 23.71 19.2415C23.5358 19.2547 23.3659 19.3026 23.2105 19.3823C22.7944 19.5846 22.3376 19.689 21.875 19.6875C21.2956 19.6869 20.7282 19.5222 20.2384 19.2125C19.7487 18.9028 19.3567 18.4607 19.1078 17.9375H26.25C26.5981 17.9375 26.9319 17.7992 27.1781 17.5531C27.4242 17.3069 27.5625 16.9731 27.5625 16.625C27.5608 15.1171 26.961 13.6715 25.8948 12.6052C24.8285 11.539 23.3829 10.9392 21.875 10.9375ZM19.1078 15.3125C19.3561 14.7888 19.748 14.3463 20.2378 14.0364C20.7277 13.7266 21.2954 13.5621 21.875 13.5621C22.4546 13.5621 23.0223 13.7266 23.5122 14.0364C24.002 14.3463 24.3939 14.7888 24.6422 15.3125H19.1078Z" fill="#0A0A0A"/>
</svg>
