<svg width="28" height="28" viewBox="0 0 28 28" fill="none" xmlns="http://www.w3.org/2000/svg">
<path d="M23.625 2.1875H4.375C3.79484 2.1875 3.23844 2.41797 2.8282 2.8282C2.41797 3.23844 2.1875 3.79484 2.1875 4.375V23.625C2.1875 24.2052 2.41797 24.7616 2.8282 25.1718C3.23844 25.582 3.79484 25.8125 4.375 25.8125H23.625C24.2052 25.8125 24.7616 25.582 25.1718 25.1718C25.582 24.7616 25.8125 24.2052 25.8125 23.625V4.375C25.8125 3.79484 25.582 3.23844 25.1718 2.8282C24.7616 2.41797 24.2052 2.1875 23.625 2.1875ZM23.1875 23.1875H4.8125V4.8125H23.1875V23.1875ZM12.25 19.25V13.125C12.2503 12.8522 12.3355 12.5863 12.4938 12.3642C12.6522 12.1422 12.8758 11.9749 13.1336 11.8858C13.3914 11.7967 13.6705 11.79 13.9322 11.8669C14.1939 11.9437 14.4252 12.1002 14.5939 12.3145C15.2606 11.9651 16.0061 11.7936 16.7584 11.8165C17.5107 11.8395 18.2444 12.0561 18.8885 12.4455C19.5326 12.8349 20.0654 13.3839 20.4353 14.0395C20.8051 14.695 20.9997 15.4348 21 16.1875V19.25C21 19.5981 20.8617 19.9319 20.6156 20.1781C20.3694 20.4242 20.0356 20.5625 19.6875 20.5625C19.3394 20.5625 19.0056 20.4242 18.7594 20.1781C18.5133 19.9319 18.375 19.5981 18.375 19.25V16.1875C18.375 15.7234 18.1906 15.2783 17.8624 14.9501C17.5342 14.6219 17.0891 14.4375 16.625 14.4375C16.1609 14.4375 15.7158 14.6219 15.3876 14.9501C15.0594 15.2783 14.875 15.7234 14.875 16.1875V19.25C14.875 19.5981 14.7367 19.9319 14.4906 20.1781C14.2444 20.4242 13.9106 20.5625 13.5625 20.5625C13.2144 20.5625 12.8806 20.4242 12.6344 20.1781C12.3883 19.9319 12.25 19.5981 12.25 19.25ZM10.5 13.125V19.25C10.5 19.5981 10.3617 19.9319 10.1156 20.1781C9.86944 20.4242 9.5356 20.5625 9.1875 20.5625C8.8394 20.5625 8.50556 20.4242 8.25942 20.1781C8.01328 19.9319 7.875 19.5981 7.875 19.25V13.125C7.875 12.7769 8.01328 12.4431 8.25942 12.1969C8.50556 11.9508 8.8394 11.8125 9.1875 11.8125C9.5356 11.8125 9.86944 11.9508 10.1156 12.1969C10.3617 12.4431 10.5 12.7769 10.5 13.125ZM7.4375 8.75C7.4375 8.40388 7.54014 8.06554 7.73243 7.77775C7.92472 7.48997 8.19803 7.26566 8.5178 7.13321C8.83757 7.00076 9.18944 6.9661 9.52891 7.03363C9.86837 7.10115 10.1802 7.26782 10.4249 7.51256C10.6697 7.75731 10.8364 8.06913 10.9039 8.40859C10.9714 8.74806 10.9367 9.09993 10.8043 9.4197C10.6718 9.73947 10.4475 10.0128 10.1597 10.2051C9.87196 10.3974 9.53362 10.5 9.1875 10.5C8.72337 10.5 8.27825 10.3156 7.95006 9.98744C7.62187 9.65925 7.4375 9.21413 7.4375 8.75Z" fill="#0A0A0A"/>
</svg>
