<svg width="28" height="28" viewBox="0 0 28 28" fill="none" xmlns="http://www.w3.org/2000/svg">
<path d="M10.0625 11.8125C10.0625 11.4644 10.2008 11.1306 10.4469 10.8844C10.6931 10.6383 11.0269 10.5 11.375 10.5H19.25C19.5981 10.5 19.9319 10.6383 20.1781 10.8844C20.4242 11.1306 20.5625 11.4644 20.5625 11.8125C20.5625 12.1606 20.4242 12.4944 20.1781 12.7406C19.9319 12.9867 19.5981 13.125 19.25 13.125H11.375C11.0269 13.125 10.6931 12.9867 10.4469 12.7406C10.2008 12.4944 10.0625 12.1606 10.0625 11.8125ZM11.375 17.5H19.25C19.5981 17.5 19.9319 17.3617 20.1781 17.1156C20.4242 16.8694 20.5625 16.5356 20.5625 16.1875C20.5625 15.8394 20.4242 15.5056 20.1781 15.2594C19.9319 15.0133 19.5981 14.875 19.25 14.875H11.375C11.0269 14.875 10.6931 15.0133 10.4469 15.2594C10.2008 15.5056 10.0625 15.8394 10.0625 16.1875C10.0625 16.5356 10.2008 16.8694 10.4469 17.1156C10.6931 17.3617 11.0269 17.5 11.375 17.5ZM25.8125 7V20.125C25.8125 20.5272 25.7333 20.9254 25.5794 21.297C25.4255 21.6685 25.1999 22.0061 24.9155 22.2905C24.6311 22.5749 24.2935 22.8005 23.922 22.9544C23.5504 23.1083 23.1522 23.1875 22.75 23.1875H3.9375C3.00924 23.1875 2.119 22.8188 1.46263 22.1624C0.806249 21.506 0.4375 20.6158 0.4375 19.6875V9.625C0.4375 9.2769 0.575781 8.94306 0.821922 8.69692C1.06806 8.45078 1.4019 8.3125 1.75 8.3125C2.0981 8.3125 2.43194 8.45078 2.67808 8.69692C2.92422 8.94306 3.0625 9.2769 3.0625 9.625V19.6875C3.0625 19.9196 3.15469 20.1421 3.31878 20.3062C3.48288 20.4703 3.70544 20.5625 3.9375 20.5625C4.16956 20.5625 4.39212 20.4703 4.55622 20.3062C4.72031 20.1421 4.8125 19.9196 4.8125 19.6875V7C4.8125 6.41984 5.04297 5.86344 5.4532 5.4532C5.86344 5.04297 6.41984 4.8125 7 4.8125H23.625C24.2052 4.8125 24.7616 5.04297 25.1718 5.4532C25.582 5.86344 25.8125 6.41984 25.8125 7ZM23.1875 7.4375H7.4375V19.6875C7.43808 19.9826 7.40133 20.2766 7.32812 20.5625H22.75C22.866 20.5625 22.9773 20.5164 23.0594 20.4344C23.1414 20.3523 23.1875 20.241 23.1875 20.125V7.4375Z" fill="#0A0A0A"/>
</svg>
