<svg width="28" height="28" viewBox="0 0 28 28" fill="none" xmlns="http://www.w3.org/2000/svg">
<path d="M23.857 22.9206L17.1851 12.4425L23.717 5.25766C23.9462 4.9993 24.0643 4.66101 24.0457 4.31614C24.0272 3.97127 23.8734 3.6476 23.6178 3.41533C23.3623 3.18305 23.0254 3.06087 22.6803 3.07529C22.3353 3.08971 22.0098 3.23955 21.7745 3.49234L15.7293 10.1467L11.607 3.67063C11.4885 3.48436 11.325 3.33098 11.1315 3.22468C10.938 3.11838 10.7208 3.0626 10.5001 3.0625H5.25009C5.01497 3.06261 4.7842 3.12587 4.5819 3.24567C4.3796 3.36548 4.21319 3.53742 4.10008 3.74354C3.98696 3.94965 3.93129 4.18237 3.93887 4.41736C3.94646 4.65235 4.01703 4.88099 4.14321 5.07937L10.8151 15.5575L4.27884 22.7423C4.16049 22.8695 4.06856 23.0188 4.00836 23.1817C3.94816 23.3447 3.9209 23.5179 3.92815 23.6914C3.9354 23.865 3.97702 24.0353 4.0506 24.1927C4.12417 24.35 4.22825 24.4912 4.35678 24.608C4.48532 24.7248 4.63576 24.8149 4.79939 24.8732C4.96302 24.9314 5.13658 24.9566 5.31001 24.9473C5.48344 24.9379 5.6533 24.8943 5.80974 24.8188C5.96617 24.7433 6.10607 24.6376 6.22134 24.5077L12.2709 17.8533L16.3932 24.3294C16.5117 24.5156 16.6752 24.669 16.8687 24.7753C17.0622 24.8816 17.2793 24.9374 17.5001 24.9375H22.7501C22.9852 24.9374 23.216 24.8741 23.4183 24.7543C23.6206 24.6345 23.787 24.4626 23.9001 24.2565C24.0132 24.0504 24.0689 23.8176 24.0613 23.5826C24.0537 23.3477 23.9831 23.119 23.857 22.9206ZM18.2209 22.3125L7.64102 5.6875H9.7793L20.3591 22.3125H18.2209Z" fill="#0A0A0A"/>
</svg>
