<svg width="20" height="20" viewBox="0 0 20 20" fill="none" xmlns="http://www.w3.org/2000/svg">
<path d="M10 10H10.0083" stroke="#0A0A0A" stroke-width="1.67" stroke-linecap="round" stroke-linejoin="round"/>
<path d="M13.3334 5.00033V3.33366C13.3334 2.89163 13.1578 2.46771 12.8453 2.15515C12.5327 1.84259 12.1088 1.66699 11.6667 1.66699H8.33341C7.89139 1.66699 7.46746 1.84259 7.1549 2.15515C6.84234 2.46771 6.66675 2.89163 6.66675 3.33366V5.00033" stroke="#0A0A0A" stroke-width="1.67" stroke-linecap="round" stroke-linejoin="round"/>
<path d="M18.3334 10.833C15.8607 12.4655 12.963 13.3358 10.0001 13.3358C7.03712 13.3358 4.13942 12.4655 1.66675 10.833" stroke="#0A0A0A" stroke-width="1.67" stroke-linecap="round" stroke-linejoin="round"/>
<path d="M16.6667 5H3.33341C2.41294 5 1.66675 5.74619 1.66675 6.66667V15C1.66675 15.9205 2.41294 16.6667 3.33341 16.6667H16.6667C17.5872 16.6667 18.3334 15.9205 18.3334 15V6.66667C18.3334 5.74619 17.5872 5 16.6667 5Z" stroke="#0A0A0A" stroke-width="1.67" stroke-linecap="round" stroke-linejoin="round"/>
</svg>
