<svg width="20" height="20" viewBox="0 0 20 20" fill="none" xmlns="http://www.w3.org/2000/svg">
<path fill-rule="evenodd" clip-rule="evenodd" d="M12.1558 0.973534C12.5066 1.27097 12.5508 1.79714 12.2537 2.14821C11.9534 2.50251 11.8713 3.00213 12.0743 3.82197C12.2573 4.56056 12.627 5.38135 13.05 6.30551C14.033 6.56145 14.905 6.78317 15.6638 6.83516C16.5063 6.8928 16.9842 6.7249 17.281 6.36788C17.5751 6.01404 18.1009 5.96638 18.4548 6.26033C18.8086 6.55448 18.857 7.0795 18.563 7.43342C17.7634 8.39553 16.6128 8.57116 15.5494 8.49838C15.0186 8.46199 14.4537 8.3582 13.8865 8.23004C14.1047 8.7968 14.2895 9.37468 14.3926 9.94226C14.5986 11.0761 14.4996 12.2804 13.6335 13.3082C12.7369 14.3848 11.5697 14.7064 10.4055 14.6726C9.91417 14.6583 9.41012 14.5782 8.91043 14.4672C9.11159 14.9011 9.28948 15.3365 9.41244 15.7604C9.71021 16.7874 9.74726 17.9396 8.91868 18.9271C8.62283 19.2793 8.09756 19.3254 7.74511 19.0298C7.39276 18.734 7.34618 18.2081 7.64169 17.8556C7.96531 17.4699 8.03132 16.9844 7.81089 16.2243C7.60445 15.5126 7.1967 14.7327 6.72604 13.839C5.76543 13.5311 4.92744 13.2657 4.19151 13.186C3.40487 13.1009 2.93802 13.2505 2.6144 13.6359C2.3186 13.9884 1.79264 14.0337 1.44008 13.7379C1.08765 13.4421 1.04161 12.9169 1.33741 12.5644C2.16599 11.5772 3.30723 11.4133 4.37019 11.5282C4.80868 11.5757 5.26783 11.6755 5.72955 11.7982C5.53366 11.3256 5.36715 10.8439 5.26778 10.3628C5.03224 9.22219 5.14658 8.01695 6.05098 6.94695C6.91271 5.9154 8.08158 5.60896 9.23393 5.61486C9.81059 5.61785 10.4121 5.69819 11.0079 5.81456C10.7833 5.27842 10.5842 4.73978 10.4563 4.22347C10.1999 3.18874 10.1729 2.02527 10.9817 1.0707C11.2793 0.720011 11.8048 0.676328 12.1558 0.973534ZM11.8617 7.72164C10.8932 7.47697 10.0066 7.28609 9.2259 7.28195C8.37312 7.27759 7.76339 7.49396 7.32722 8.01785L7.32282 8.02308C6.83408 8.60158 6.73799 9.24143 6.89978 10.0252C7.05391 10.7715 7.43096 11.5758 7.88607 12.4565C8.8336 12.7522 9.69218 12.9846 10.4546 13.0068C11.2545 13.0299 11.8681 12.8244 12.3529 12.2425L12.3573 12.2373C12.7973 11.7167 12.9047 11.0787 12.7523 10.2397C12.6127 9.47182 12.2706 8.63249 11.8617 7.72164Z" fill="#0A0A0A"/>
<path d="M8.71143 8.96191L11.2649 11.1045" stroke="#0A0A0A" stroke-width="1.66667" stroke-linecap="round"/>
<path d="M13.5325 3.2168L16.086 5.35942" stroke="#0A0A0A" stroke-width="1.66667" stroke-linecap="round"/>
<path d="M3.89062 14.707L6.44411 16.8497" stroke="#0A0A0A" stroke-width="1.66667" stroke-linecap="round"/>
</svg>
