<svg width="20" height="20" viewBox="0 0 20 20" fill="none" xmlns="http://www.w3.org/2000/svg">
<path d="M5.84358 10.3202L4.62729 6.74959C4.49826 6.37079 4.51372 5.96008 4.67028 5.60782C4.82684 5.25556 5.11167 4.9906 5.46211 4.87123C5.81255 4.75186 6.19989 4.78785 6.53893 4.9713C6.87797 5.15474 7.14092 5.4706 7.26996 5.8494M8.24299 8.70593L6.78344 4.42114C6.65441 4.04234 6.66987 3.63163 6.82643 3.27937C6.98299 2.92711 7.26782 2.66215 7.61826 2.54278C7.9687 2.42341 8.35604 2.4594 8.69508 2.64285C9.03412 2.82629 9.29708 3.14215 9.42611 3.52095L9.91263 4.94921M9.91263 4.94921L11.0073 8.1628M9.91263 4.94921C9.78359 4.57041 9.79906 4.15971 9.95562 3.80745C10.1122 3.45519 10.397 3.19023 10.7474 3.07086C11.0979 2.95148 11.4852 2.98748 11.8243 3.17092C12.1633 3.35436 12.4263 3.67023 12.5553 4.04903L14.5014 9.76208M5.11381 8.17785C4.98477 7.79905 4.72181 7.48319 4.38278 7.29975C4.04374 7.1163 3.65639 7.08031 3.30595 7.19968C2.95551 7.31905 2.67069 7.58401 2.51413 7.93627C2.35757 8.28853 2.3421 8.69924 2.47114 9.07804L3.93069 13.3628C4.44682 14.878 5.49865 16.1415 6.85481 16.8752C8.21096 17.609 9.76034 17.753 11.1621 17.2755L12.4834 16.8254C14.3333 16.1953 15.2472 15.1985 15.8716 13.8063L17.3743 10.4253C17.5089 10.0757 17.5094 9.67803 17.3756 9.31457C17.2418 8.9511 16.984 8.64969 16.6556 8.47274C16.3271 8.29579 15.9532 8.25686 15.6113 8.364C15.2693 8.47114 14.9855 8.71615 14.8186 9.0483L14.084 10.7013" stroke="#0A0A0A" stroke-width="1.66667" stroke-linecap="round" stroke-linejoin="round"/>
<path d="M16.3832 2.59613C16.3405 2.46796 16.1592 2.46796 16.1166 2.59613L15.8759 3.31983C15.7361 3.73994 15.4065 4.06958 14.9864 4.20932L14.2627 4.45005C14.1345 4.49268 14.1345 4.67399 14.2627 4.71662L14.9864 4.95735C15.4065 5.0971 15.7361 5.42673 15.8759 5.84684L16.1166 6.57054C16.1592 6.69871 16.3405 6.69871 16.3832 6.57054L16.6239 5.84684C16.7637 5.42673 17.0933 5.0971 17.5134 4.95735L18.2371 4.71662C18.3653 4.67399 18.3653 4.49268 18.2371 4.45005L17.5134 4.20932C17.0933 4.06958 16.7637 3.73994 16.6239 3.31983L16.3832 2.59613Z" fill="#0A0A0A"/>
<path d="M3.43994 1.7439C3.40584 1.64136 3.26077 1.64136 3.22667 1.7439L3.03413 2.32286C2.92229 2.65895 2.65862 2.92265 2.32251 3.03445L1.74357 3.22703C1.64103 3.26114 1.64103 3.40618 1.74357 3.44029L2.32251 3.63287C2.65862 3.74467 2.92229 4.00837 3.03413 4.34446L3.22667 4.92342C3.26077 5.02596 3.40584 5.02596 3.43994 4.92342L3.63254 4.34446C3.74432 4.00837 4.00804 3.74467 4.3441 3.63287L4.92309 3.44029C5.02564 3.40618 5.02564 3.26114 4.92309 3.22703L4.3441 3.03445C4.00804 2.92265 3.74432 2.65895 3.63254 2.32286L3.43994 1.7439Z" fill="#0A0A0A"/>
</svg>
