<svg width="20" height="20" viewBox="0 0 20 20" fill="none" xmlns="http://www.w3.org/2000/svg">
<g clip-path="url(#clip0_745_11411)">
<mask id="path-2-inside-1_745_11411" fill="white">
<path d="M7.60625 1.9356C11.438 0.846414 13.9043 4.01158 14.8152 5.82231C14.8484 5.88829 14.8761 5.95565 14.9021 6.02251C14.9417 6.10493 14.9677 6.19009 14.9861 6.27739C17.2469 6.65504 18.8505 7.63141 19.1473 9.04302C19.4843 10.6464 18.0517 12.4139 15.6248 13.7442C15.1487 16.0274 13.6813 17.842 11.616 18.3477C9.39849 18.8905 7.09442 17.7775 5.61797 15.7041C3.09558 15.3931 1.27522 14.3808 0.956833 12.8672C0.668309 11.4947 1.67555 10.0008 3.49394 8.7647C3.21687 6.58328 4.5601 2.80173 7.60625 1.9356Z"/>
</mask>
<path d="M7.60625 1.9356L7.15054 0.332438L7.15042 0.332474L7.60625 1.9356ZM14.8152 5.82231L16.3042 5.07357L16.3041 5.07332L14.8152 5.82231ZM14.9021 6.02251L13.3494 6.62809L13.3724 6.68701L13.3997 6.74401L14.9021 6.02251ZM14.9861 6.27739L13.3553 6.62127L13.5899 7.73393L14.7115 7.92128L14.9861 6.27739ZM19.1473 9.04302L20.7783 8.70018L20.7783 8.70015L19.1473 9.04302ZM15.6248 13.7442L14.8237 12.2827L14.15 12.652L13.9932 13.404L15.6248 13.7442ZM11.616 18.3477L12.0123 19.9666L12.0124 19.9665L11.616 18.3477ZM5.61797 15.7042L6.97558 14.7374L6.55004 14.1398L5.82196 14.05L5.61797 15.7042ZM0.956833 12.8672L-0.674184 13.2101L-0.674137 13.2103L0.956833 12.8672ZM3.49394 8.7647L4.43093 10.143L5.27609 9.5685L5.14733 8.55469L3.49394 8.7647ZM7.60625 1.9356L8.06195 3.53875C9.39516 3.15978 10.4476 3.49931 11.3244 4.13837C12.2544 4.81622 12.9475 5.81828 13.3263 6.57131L14.8152 5.82231L16.3041 5.07332C15.772 4.01561 14.7765 2.52973 13.2877 1.4446C11.7457 0.320691 9.64906 -0.377774 7.15054 0.332438L7.60625 1.9356ZM14.8152 5.82231L13.3262 6.57105C13.3242 6.56708 13.3251 6.56852 13.3293 6.57818C13.3336 6.58828 13.3397 6.60322 13.3494 6.62809L14.9021 6.02251L16.4549 5.41693C16.4231 5.33546 16.373 5.21032 16.3042 5.07357L14.8152 5.82231ZM14.9021 6.02251L13.3997 6.74401C13.368 6.67785 13.3571 6.62975 13.3553 6.62127L14.9861 6.27739L16.6169 5.93351C16.5783 5.75042 16.5155 5.53201 16.4045 5.30101L14.9021 6.02251ZM14.9861 6.27739L14.7115 7.92128C15.6927 8.08519 16.4228 8.36343 16.8958 8.67044C17.3605 8.97212 17.4841 9.23297 17.5162 9.38589L19.1473 9.04302L20.7783 8.70015C20.5137 7.44146 19.6871 6.50831 18.7106 5.8745C17.7424 5.24601 16.5402 4.84724 15.2607 4.6335L14.9861 6.27739ZM19.1473 9.04302L17.5162 9.38585C17.5519 9.55555 17.537 9.91121 17.0994 10.4825C16.6624 11.053 15.9036 11.6907 14.8237 12.2827L15.6248 13.7442L16.4259 15.2057C17.7729 14.4673 18.9438 13.5561 19.7456 12.5095C20.5468 11.4636 21.0796 10.1338 20.7783 8.70018L19.1473 9.04302ZM15.6248 13.7442L13.9932 13.404C13.6135 15.2251 12.5115 16.4125 11.2196 16.7289L11.616 18.3477L12.0124 19.9665C14.8511 19.2715 16.6839 16.8296 17.2564 14.0844L15.6248 13.7442ZM11.616 18.3477L11.2198 16.7288C9.83579 17.0676 8.16886 16.413 6.97558 14.7374L5.61797 15.7042L4.26035 16.6709C6.01997 19.1419 8.96118 20.7134 12.0123 19.9666L11.616 18.3477ZM5.61797 15.7042L5.82196 14.05C4.71095 13.913 3.86581 13.6325 3.31194 13.3036C2.76235 12.9772 2.62185 12.686 2.5878 12.5241L0.956833 12.8672L-0.674137 13.2103C-0.389795 14.562 0.539079 15.5337 1.60986 16.1696C2.67637 16.803 4.0026 17.1842 5.41398 17.3583L5.61797 15.7042ZM0.956833 12.8672L2.58785 12.5244C2.55634 12.3745 2.56352 12.0984 2.84333 11.6566C3.12911 11.2053 3.64709 10.6759 4.43093 10.143L3.49394 8.7647L2.55695 7.38635C1.5224 8.08964 0.62756 8.92522 0.0272542 9.87309C-0.579021 10.8304 -0.931197 11.9875 -0.674184 13.2101L0.956833 12.8672ZM3.49394 8.7647L5.14733 8.55469C5.05756 7.84799 5.23322 6.69434 5.78611 5.61901C6.33018 4.56084 7.11616 3.80768 8.06208 3.53872L7.60625 1.9356L7.15042 0.332474C5.05019 0.929649 3.64148 2.50033 2.82167 4.09482C2.01067 5.67215 1.65325 7.49999 1.84056 8.9747L3.49394 8.7647Z" fill="#0A0A0A" mask="url(#path-2-inside-1_745_11411)"/>
<path d="M14.1667 6.25016C13.75 9.147 9.16666 12.0837 4.16665 9.16678" stroke="#0A0A0A" stroke-width="1.66667"/>
<path d="M2.67264 12.7444C2.3472 12.4189 1.81956 12.4189 1.49413 12.7444C1.16869 13.0698 1.16868 13.5974 1.49412 13.9229L2.08338 13.3336L2.67264 12.7444ZM18.3333 9.84997L17.5489 9.56852C17.3371 10.1588 16.6122 10.9196 15.3617 11.679C14.1511 12.4142 12.5869 13.0637 10.9339 13.4985C9.27925 13.9337 7.57774 14.1429 6.09164 14.0303C4.59345 13.9168 3.41384 13.4856 2.67264 12.7444L2.08338 13.3336L1.49412 13.9229C2.62791 15.0567 4.2608 15.563 5.96572 15.6922C7.68273 15.8223 9.57496 15.5793 11.3578 15.1103C13.1422 14.6409 14.8593 13.9341 16.2268 13.1036C17.5545 12.2973 18.7045 11.2829 19.1177 10.1314L18.3333 9.84997Z" fill="#0A0A0A"/>
<path d="M7.08324 7.08341C7.08324 7.08341 7.49991 5.41675 8.57636 5.00025" stroke="#0A0A0A" stroke-width="1.66667" stroke-linecap="round"/>
</g>
<defs>
<clipPath id="clip0_745_11411">
<rect width="20" height="20" fill="white"/>
</clipPath>
</defs>
</svg>
